  0
SECTION
  2
BLOCKS
  0
ENDSEC
  0
SECTION
  2
ENTITIES
  0
LINE
  8
0
 10
-250
 11
-250
 20
-250
 21
250
  0
LINE
  8
0
 10
-250
 11
250
 20
250
 21
250
  0
LINE
  8
0
 10
250
 11
250
 20
250
 21
-250
  0
LINE
  8
0
 10
250
 11
-250
 20
-250
 21
-250
  0
LINE
  8
0
 10
-238
 11
-237.427
 20
0
 21
1.763
  0
LINE
  8
0
 10
-237.427
 11
-235.927
 20
1.763
 21
2.853
  0
LINE
  8
0
 10
-235.927
 11
-234.073
 20
2.853
 21
2.853
  0
LINE
  8
0
 10
-234.073
 11
-232.573
 20
2.853
 21
1.763
  0
LINE
  8
0
 10
-232.573
 11
-232
 20
1.763
 21
0
  0
LINE
  8
0
 10
-232
 11
-232.573
 20
0
 21
-1.763
  0
LINE
  8
0
 10
-232.573
 11
-234.073
 20
-1.763
 21
-2.853
  0
LINE
  8
0
 10
-234.073
 11
-235.927
 20
-2.853
 21
-2.853
  0
LINE
  8
0
 10
-235.927
 11
-237.427
 20
-2.853
 21
-1.763
  0
LINE
  8
0
 10
-237.427
 11
-238
 20
-1.763
 21
0
  0
LINE
  8
0
 10
232
 11
232.573
 20
-235
 21
-233.237
  0
LINE
  8
0
 10
232.573
 11
234.073
 20
-233.237
 21
-232.147
  0
LINE
  8
0
 10
234.073
 11
235.927
 20
-232.147
 21
-232.147
  0
LINE
  8
0
 10
235.927
 11
237.427
 20
-232.147
 21
-233.237
  0
LINE
  8
0
 10
237.427
 11
238
 20
-233.237
 21
-235
  0
LINE
  8
0
 10
238
 11
237.427
 20
-235
 21
-236.763
  0
LINE
  8
0
 10
237.427
 11
235.927
 20
-236.763
 21
-237.853
  0
LINE
  8
0
 10
235.927
 11
234.073
 20
-237.853
 21
-237.853
  0
LINE
  8
0
 10
234.073
 11
232.573
 20
-237.853
 21
-236.763
  0
LINE
  8
0
 10
232.573
 11
232
 20
-236.763
 21
-235
  0
LINE
  8
0
 10
232
 11
232.573
 20
235
 21
236.763
  0
LINE
  8
0
 10
232.573
 11
234.073
 20
236.763
 21
237.853
  0
LINE
  8
0
 10
234.073
 11
235.927
 20
237.853
 21
237.853
  0
LINE
  8
0
 10
235.927
 11
237.427
 20
237.853
 21
236.763
  0
LINE
  8
0
 10
237.427
 11
238
 20
236.763
 21
235
  0
LINE
  8
0
 10
238
 11
237.427
 20
235
 21
233.237
  0
LINE
  8
0
 10
237.427
 11
235.927
 20
233.237
 21
232.147
  0
LINE
  8
0
 10
235.927
 11
234.073
 20
232.147
 21
232.147
  0
LINE
  8
0
 10
234.073
 11
232.573
 20
232.147
 21
233.237
  0
LINE
  8
0
 10
232.573
 11
232
 20
233.237
 21
235
  0
ENDSEC
  0
SECTION
  2
OBJECTS
  0
DICTIONARY
  0
ENDSEC
  0
EOF
