  0
SECTION
  2
BLOCKS
  0
ENDSEC
  0
SECTION
  2
ENTITIES
  0
LINE
  8
0
 10
-125
 11
-125
 20
-125
 21
125
  0
LINE
  8
0
 10
-125
 11
125
 20
125
 21
125
  0
LINE
  8
0
 10
125
 11
125
 20
125
 21
-125
  0
LINE
  8
0
 10
125
 11
-125
 20
-125
 21
-125
  0
LINE
  8
0
 10
-118.5
 11
-117.464
 20
-117
 21
-115.573
  0
LINE
  8
0
 10
-117.464
 11
-115.786
 20
-115.573
 21
-116.118
  0
LINE
  8
0
 10
-115.786
 11
-115.786
 20
-116.118
 21
-117.882
  0
LINE
  8
0
 10
-115.786
 11
-117.464
 20
-117.882
 21
-118.427
  0
LINE
  8
0
 10
-117.464
 11
-118.5
 20
-118.427
 21
-117
  0
LINE
  8
0
 10
-118.427
 11
-117
 20
117.464
 21
118.5
  0
LINE
  8
0
 10
-117
 11
-115.573
 20
118.5
 21
117.464
  0
LINE
  8
0
 10
-115.573
 11
-116.118
 20
117.464
 21
115.786
  0
LINE
  8
0
 10
-116.118
 11
-117.882
 20
115.786
 21
115.786
  0
LINE
  8
0
 10
-117.882
 11
-118.427
 20
115.786
 21
117.464
  0
LINE
  8
0
 10
-111.5
 11
-110.464
 20
0
 21
1.427
  0
LINE
  8
0
 10
-110.464
 11
-108.786
 20
1.427
 21
0.882
  0
LINE
  8
0
 10
-108.786
 11
-108.786
 20
0.882
 21
-0.882
  0
LINE
  8
0
 10
-108.786
 11
-110.464
 20
-0.882
 21
-1.427
  0
LINE
  8
0
 10
-110.464
 11
-111.5
 20
-1.427
 21
0
  0
LINE
  8
0
 10
-111.214
 11
-111.214
 20
-110.882
 21
-109.118
  0
LINE
  8
0
 10
-111.214
 11
-109.536
 20
-109.118
 21
-108.573
  0
LINE
  8
0
 10
-109.536
 11
-108.5
 20
-108.573
 21
-110
  0
LINE
  8
0
 10
-108.5
 11
-109.536
 20
-110
 21
-111.427
  0
LINE
  8
0
 10
-109.536
 11
-111.214
 20
-111.427
 21
-110.882
  0
LINE
  8
0
 10
-111.214
 11
-111.214
 20
109.118
 21
110.882
  0
LINE
  8
0
 10
-111.214
 11
-109.536
 20
110.882
 21
111.427
  0
LINE
  8
0
 10
-109.536
 11
-108.5
 20
111.427
 21
110
  0
LINE
  8
0
 10
-108.5
 11
-109.536
 20
110
 21
108.573
  0
LINE
  8
0
 10
-109.536
 11
-111.214
 20
108.573
 21
109.118
  0
LINE
  8
0
 10
108.5
 11
109.536
 20
-110
 21
-108.573
  0
LINE
  8
0
 10
109.536
 11
111.214
 20
-108.573
 21
-109.118
  0
LINE
  8
0
 10
111.214
 11
111.214
 20
-109.118
 21
-110.882
  0
LINE
  8
0
 10
111.214
 11
109.536
 20
-110.882
 21
-111.427
  0
LINE
  8
0
 10
109.536
 11
108.5
 20
-111.427
 21
-110
  0
LINE
  8
0
 10
108.5
 11
109.536
 20
110
 21
111.427
  0
LINE
  8
0
 10
109.536
 11
111.214
 20
111.427
 21
110.882
  0
LINE
  8
0
 10
111.214
 11
111.214
 20
110.882
 21
109.118
  0
LINE
  8
0
 10
111.214
 11
109.536
 20
109.118
 21
108.573
  0
LINE
  8
0
 10
109.536
 11
108.5
 20
108.573
 21
110
  0
LINE
  8
0
 10
108.786
 11
108.786
 20
-0.882
 21
0.882
  0
LINE
  8
0
 10
108.786
 11
110.464
 20
0.882
 21
1.427
  0
LINE
  8
0
 10
110.464
 11
111.5
 20
1.427
 21
0
  0
LINE
  8
0
 10
111.5
 11
110.464
 20
0
 21
-1.427
  0
LINE
  8
0
 10
110.464
 11
108.786
 20
-1.427
 21
-0.882
  0
LINE
  8
0
 10
115.573
 11
116.118
 20
-117.464
 21
-115.786
  0
LINE
  8
0
 10
116.118
 11
117.882
 20
-115.786
 21
-115.786
  0
LINE
  8
0
 10
117.882
 11
118.427
 20
-115.786
 21
-117.464
  0
LINE
  8
0
 10
118.427
 11
117
 20
-117.464
 21
-118.5
  0
LINE
  8
0
 10
117
 11
115.573
 20
-118.5
 21
-117.464
  0
LINE
  8
0
 10
115.786
 11
115.786
 20
116.118
 21
117.882
  0
LINE
  8
0
 10
115.786
 11
117.464
 20
117.882
 21
118.427
  0
LINE
  8
0
 10
117.464
 11
118.5
 20
118.427
 21
117
  0
LINE
  8
0
 10
118.5
 11
117.464
 20
117
 21
115.573
  0
LINE
  8
0
 10
117.464
 11
115.786
 20
115.573
 21
116.118
  0
ENDSEC
  0
SECTION
  2
OBJECTS
  0
DICTIONARY
  0
ENDSEC
  0
EOF
