  0
SECTION
  2
BLOCKS
  0
ENDSEC
  0
SECTION
  2
ENTITIES
  0
LINE
  8
0
 10
-125
 11
-125
 20
-125
 21
125
  0
LINE
  8
0
 10
-125
 11
125
 20
125
 21
125
  0
LINE
  8
0
 10
125
 11
125
 20
125
 21
-125
  0
LINE
  8
0
 10
125
 11
-125
 20
-125
 21
-125
  0
LINE
  8
0
 10
-118.5
 11
-117.464
 20
-117
 21
-115.573
  0
LINE
  8
0
 10
-117.464
 11
-115.786
 20
-115.573
 21
-116.118
  0
LINE
  8
0
 10
-115.786
 11
-115.786
 20
-116.118
 21
-117.882
  0
LINE
  8
0
 10
-115.786
 11
-117.464
 20
-117.882
 21
-118.427
  0
LINE
  8
0
 10
-117.464
 11
-118.5
 20
-118.427
 21
-117
  0
LINE
  8
0
 10
-118.427
 11
-117
 20
117.464
 21
118.5
  0
LINE
  8
0
 10
-117
 11
-115.573
 20
118.5
 21
117.464
  0
LINE
  8
0
 10
-115.573
 11
-116.118
 20
117.464
 21
115.786
  0
LINE
  8
0
 10
-116.118
 11
-117.882
 20
115.786
 21
115.786
  0
LINE
  8
0
 10
-117.882
 11
-118.427
 20
115.786
 21
117.464
  0
LINE
  8
0
 10
-111.5
 11
-110.464
 20
0
 21
1.427
  0
LINE
  8
0
 10
-110.464
 11
-108.786
 20
1.427
 21
0.882
  0
LINE
  8
0
 10
-108.786
 11
-108.786
 20
0.882
 21
-0.882
  0
LINE
  8
0
 10
-108.786
 11
-110.464
 20
-0.882
 21
-1.427
  0
LINE
  8
0
 10
-110.464
 11
-111.5
 20
-1.427
 21
0
  0
LINE
  8
0
 10
-111.214
 11
-111.214
 20
-110.882
 21
-109.118
  0
LINE
  8
0
 10
-111.214
 11
-109.536
 20
-109.118
 21
-108.573
  0
LINE
  8
0
 10
-109.536
 11
-108.5
 20
-108.573
 21
-110
  0
LINE
  8
0
 10
-108.5
 11
-109.536
 20
-110
 21
-111.427
  0
LINE
  8
0
 10
-109.536
 11
-111.214
 20
-111.427
 21
-110.882
  0
LINE
  8
0
 10
-111.214
 11
-111.214
 20
109.118
 21
110.882
  0
LINE
  8
0
 10
-111.214
 11
-109.536
 20
110.882
 21
111.427
  0
LINE
  8
0
 10
-109.536
 11
-108.5
 20
111.427
 21
110
  0
LINE
  8
0
 10
-108.5
 11
-109.536
 20
110
 21
108.573
  0
LINE
  8
0
 10
-109.536
 11
-111.214
 20
108.573
 21
109.118
  0
LINE
  8
0
 10
-108.5
 11
-107.44
 20
-60
 21
-49.916
  0
LINE
  8
0
 10
-107.44
 11
-104.307
 20
-49.916
 21
-40.273
  0
LINE
  8
0
 10
-104.307
 11
-99.237
 20
-40.273
 21
-31.492
  0
LINE
  8
0
 10
-99.237
 11
-92.453
 20
-31.492
 21
-23.957
  0
LINE
  8
0
 10
-92.453
 11
-84.25
 20
-23.957
 21
-17.998
  0
LINE
  8
0
 10
-84.25
 11
-74.987
 20
-17.998
 21
-13.874
  0
LINE
  8
0
 10
-74.987
 11
-65.07
 20
-13.874
 21
-11.766
  0
LINE
  8
0
 10
-65.07
 11
-54.93
 20
-11.766
 21
-11.766
  0
LINE
  8
0
 10
-54.93
 11
-45.013
 20
-11.766
 21
-13.874
  0
LINE
  8
0
 10
-45.013
 11
-35.75
 20
-13.874
 21
-17.998
  0
LINE
  8
0
 10
-35.75
 11
-27.547
 20
-17.998
 21
-23.957
  0
LINE
  8
0
 10
-27.547
 11
-20.763
 20
-23.957
 21
-31.492
  0
LINE
  8
0
 10
-20.763
 11
-15.693
 20
-31.492
 21
-40.273
  0
LINE
  8
0
 10
-15.693
 11
-12.56
 20
-40.273
 21
-49.916
  0
LINE
  8
0
 10
-12.56
 11
-11.5
 20
-49.916
 21
-60
  0
LINE
  8
0
 10
-11.5
 11
-12.56
 20
-60
 21
-70.084
  0
LINE
  8
0
 10
-12.56
 11
-15.693
 20
-70.084
 21
-79.727
  0
LINE
  8
0
 10
-15.693
 11
-20.763
 20
-79.727
 21
-88.508
  0
LINE
  8
0
 10
-20.763
 11
-27.547
 20
-88.508
 21
-96.043
  0
LINE
  8
0
 10
-27.547
 11
-35.75
 20
-96.043
 21
-102.002
  0
LINE
  8
0
 10
-35.75
 11
-45.013
 20
-102.002
 21
-106.126
  0
LINE
  8
0
 10
-45.013
 11
-54.93
 20
-106.126
 21
-108.234
  0
LINE
  8
0
 10
-54.93
 11
-65.07
 20
-108.234
 21
-108.234
  0
LINE
  8
0
 10
-65.07
 11
-74.987
 20
-108.234
 21
-106.126
  0
LINE
  8
0
 10
-74.987
 11
-84.25
 20
-106.126
 21
-102.002
  0
LINE
  8
0
 10
-84.25
 11
-92.453
 20
-102.002
 21
-96.043
  0
LINE
  8
0
 10
-92.453
 11
-99.237
 20
-96.043
 21
-88.508
  0
LINE
  8
0
 10
-99.237
 11
-104.307
 20
-88.508
 21
-79.727
  0
LINE
  8
0
 10
-104.307
 11
-107.44
 20
-79.727
 21
-70.084
  0
LINE
  8
0
 10
-107.44
 11
-108.5
 20
-70.084
 21
-60
  0
LINE
  8
0
 10
-108.234
 11
-108.234
 20
54.93
 21
65.07
  0
LINE
  8
0
 10
-108.234
 11
-106.126
 20
65.07
 21
74.987
  0
LINE
  8
0
 10
-106.126
 11
-102.002
 20
74.987
 21
84.25
  0
LINE
  8
0
 10
-102.002
 11
-96.043
 20
84.25
 21
92.453
  0
LINE
  8
0
 10
-96.043
 11
-88.508
 20
92.453
 21
99.237
  0
LINE
  8
0
 10
-88.508
 11
-79.727
 20
99.237
 21
104.307
  0
LINE
  8
0
 10
-79.727
 11
-70.084
 20
104.307
 21
107.44
  0
LINE
  8
0
 10
-70.084
 11
-60
 20
107.44
 21
108.5
  0
LINE
  8
0
 10
-60
 11
-49.916
 20
108.5
 21
107.44
  0
LINE
  8
0
 10
-49.916
 11
-40.273
 20
107.44
 21
104.307
  0
LINE
  8
0
 10
-40.273
 11
-31.492
 20
104.307
 21
99.237
  0
LINE
  8
0
 10
-31.492
 11
-23.957
 20
99.237
 21
92.453
  0
LINE
  8
0
 10
-23.957
 11
-17.998
 20
92.453
 21
84.25
  0
LINE
  8
0
 10
-17.998
 11
-13.874
 20
84.25
 21
74.987
  0
LINE
  8
0
 10
-13.874
 11
-11.766
 20
74.987
 21
65.07
  0
LINE
  8
0
 10
-11.766
 11
-11.766
 20
65.07
 21
54.93
  0
LINE
  8
0
 10
-11.766
 11
-13.874
 20
54.93
 21
45.013
  0
LINE
  8
0
 10
-13.874
 11
-17.998
 20
45.013
 21
35.75
  0
LINE
  8
0
 10
-17.998
 11
-23.957
 20
35.75
 21
27.547
  0
LINE
  8
0
 10
-23.957
 11
-31.492
 20
27.547
 21
20.763
  0
LINE
  8
0
 10
-31.492
 11
-40.273
 20
20.763
 21
15.693
  0
LINE
  8
0
 10
-40.273
 11
-49.916
 20
15.693
 21
12.56
  0
LINE
  8
0
 10
-49.916
 11
-60
 20
12.56
 21
11.5
  0
LINE
  8
0
 10
-60
 11
-70.084
 20
11.5
 21
12.56
  0
LINE
  8
0
 10
-70.084
 11
-79.727
 20
12.56
 21
15.693
  0
LINE
  8
0
 10
-79.727
 11
-88.508
 20
15.693
 21
20.763
  0
LINE
  8
0
 10
-88.508
 11
-96.043
 20
20.763
 21
27.547
  0
LINE
  8
0
 10
-96.043
 11
-102.002
 20
27.547
 21
35.75
  0
LINE
  8
0
 10
-102.002
 11
-106.126
 20
35.75
 21
45.013
  0
LINE
  8
0
 10
-106.126
 11
-108.234
 20
45.013
 21
54.93
  0
LINE
  8
0
 10
11.5
 11
12.56
 20
60
 21
70.084
  0
LINE
  8
0
 10
12.56
 11
15.693
 20
70.084
 21
79.727
  0
LINE
  8
0
 10
15.693
 11
20.763
 20
79.727
 21
88.508
  0
LINE
  8
0
 10
20.763
 11
27.547
 20
88.508
 21
96.043
  0
LINE
  8
0
 10
27.547
 11
35.75
 20
96.043
 21
102.002
  0
LINE
  8
0
 10
35.75
 11
45.013
 20
102.002
 21
106.126
  0
LINE
  8
0
 10
45.013
 11
54.93
 20
106.126
 21
108.234
  0
LINE
  8
0
 10
54.93
 11
65.07
 20
108.234
 21
108.234
  0
LINE
  8
0
 10
65.07
 11
74.987
 20
108.234
 21
106.126
  0
LINE
  8
0
 10
74.987
 11
84.25
 20
106.126
 21
102.002
  0
LINE
  8
0
 10
84.25
 11
92.453
 20
102.002
 21
96.043
  0
LINE
  8
0
 10
92.453
 11
99.237
 20
96.043
 21
88.508
  0
LINE
  8
0
 10
99.237
 11
104.307
 20
88.508
 21
79.727
  0
LINE
  8
0
 10
104.307
 11
107.44
 20
79.727
 21
70.084
  0
LINE
  8
0
 10
107.44
 11
108.5
 20
70.084
 21
60
  0
LINE
  8
0
 10
108.5
 11
107.44
 20
60
 21
49.916
  0
LINE
  8
0
 10
107.44
 11
104.307
 20
49.916
 21
40.273
  0
LINE
  8
0
 10
104.307
 11
99.237
 20
40.273
 21
31.492
  0
LINE
  8
0
 10
99.237
 11
92.453
 20
31.492
 21
23.957
  0
LINE
  8
0
 10
92.453
 11
84.25
 20
23.957
 21
17.998
  0
LINE
  8
0
 10
84.25
 11
74.987
 20
17.998
 21
13.874
  0
LINE
  8
0
 10
74.987
 11
65.07
 20
13.874
 21
11.766
  0
LINE
  8
0
 10
65.07
 11
54.93
 20
11.766
 21
11.766
  0
LINE
  8
0
 10
54.93
 11
45.013
 20
11.766
 21
13.874
  0
LINE
  8
0
 10
45.013
 11
35.75
 20
13.874
 21
17.998
  0
LINE
  8
0
 10
35.75
 11
27.547
 20
17.998
 21
23.957
  0
LINE
  8
0
 10
27.547
 11
20.763
 20
23.957
 21
31.492
  0
LINE
  8
0
 10
20.763
 11
15.693
 20
31.492
 21
40.273
  0
LINE
  8
0
 10
15.693
 11
12.56
 20
40.273
 21
49.916
  0
LINE
  8
0
 10
12.56
 11
11.5
 20
49.916
 21
60
  0
LINE
  8
0
 10
11.766
 11
11.766
 20
-65.07
 21
-54.93
  0
LINE
  8
0
 10
11.766
 11
13.874
 20
-54.93
 21
-45.013
  0
LINE
  8
0
 10
13.874
 11
17.998
 20
-45.013
 21
-35.75
  0
LINE
  8
0
 10
17.998
 11
23.957
 20
-35.75
 21
-27.547
  0
LINE
  8
0
 10
23.957
 11
31.492
 20
-27.547
 21
-20.763
  0
LINE
  8
0
 10
31.492
 11
40.273
 20
-20.763
 21
-15.693
  0
LINE
  8
0
 10
40.273
 11
49.916
 20
-15.693
 21
-12.56
  0
LINE
  8
0
 10
49.916
 11
60
 20
-12.56
 21
-11.5
  0
LINE
  8
0
 10
60
 11
70.084
 20
-11.5
 21
-12.56
  0
LINE
  8
0
 10
70.084
 11
79.727
 20
-12.56
 21
-15.693
  0
LINE
  8
0
 10
79.727
 11
88.508
 20
-15.693
 21
-20.763
  0
LINE
  8
0
 10
88.508
 11
96.043
 20
-20.763
 21
-27.547
  0
LINE
  8
0
 10
96.043
 11
102.002
 20
-27.547
 21
-35.75
  0
LINE
  8
0
 10
102.002
 11
106.126
 20
-35.75
 21
-45.013
  0
LINE
  8
0
 10
106.126
 11
108.234
 20
-45.013
 21
-54.93
  0
LINE
  8
0
 10
108.234
 11
108.234
 20
-54.93
 21
-65.07
  0
LINE
  8
0
 10
108.234
 11
106.126
 20
-65.07
 21
-74.987
  0
LINE
  8
0
 10
106.126
 11
102.002
 20
-74.987
 21
-84.25
  0
LINE
  8
0
 10
102.002
 11
96.043
 20
-84.25
 21
-92.453
  0
LINE
  8
0
 10
96.043
 11
88.508
 20
-92.453
 21
-99.237
  0
LINE
  8
0
 10
88.508
 11
79.727
 20
-99.237
 21
-104.307
  0
LINE
  8
0
 10
79.727
 11
70.084
 20
-104.307
 21
-107.44
  0
LINE
  8
0
 10
70.084
 11
60
 20
-107.44
 21
-108.5
  0
LINE
  8
0
 10
60
 11
49.916
 20
-108.5
 21
-107.44
  0
LINE
  8
0
 10
49.916
 11
40.273
 20
-107.44
 21
-104.307
  0
LINE
  8
0
 10
40.273
 11
31.492
 20
-104.307
 21
-99.237
  0
LINE
  8
0
 10
31.492
 11
23.957
 20
-99.237
 21
-92.453
  0
LINE
  8
0
 10
23.957
 11
17.998
 20
-92.453
 21
-84.25
  0
LINE
  8
0
 10
17.998
 11
13.874
 20
-84.25
 21
-74.987
  0
LINE
  8
0
 10
13.874
 11
11.766
 20
-74.987
 21
-65.07
  0
LINE
  8
0
 10
108.5
 11
109.536
 20
-110
 21
-108.573
  0
LINE
  8
0
 10
109.536
 11
111.214
 20
-108.573
 21
-109.118
  0
LINE
  8
0
 10
111.214
 11
111.214
 20
-109.118
 21
-110.882
  0
LINE
  8
0
 10
111.214
 11
109.536
 20
-110.882
 21
-111.427
  0
LINE
  8
0
 10
109.536
 11
108.5
 20
-111.427
 21
-110
  0
LINE
  8
0
 10
108.5
 11
109.536
 20
110
 21
111.427
  0
LINE
  8
0
 10
109.536
 11
111.214
 20
111.427
 21
110.882
  0
LINE
  8
0
 10
111.214
 11
111.214
 20
110.882
 21
109.118
  0
LINE
  8
0
 10
111.214
 11
109.536
 20
109.118
 21
108.573
  0
LINE
  8
0
 10
109.536
 11
108.5
 20
108.573
 21
110
  0
LINE
  8
0
 10
108.786
 11
108.786
 20
-0.882
 21
0.882
  0
LINE
  8
0
 10
108.786
 11
110.464
 20
0.882
 21
1.427
  0
LINE
  8
0
 10
110.464
 11
111.5
 20
1.427
 21
0
  0
LINE
  8
0
 10
111.5
 11
110.464
 20
0
 21
-1.427
  0
LINE
  8
0
 10
110.464
 11
108.786
 20
-1.427
 21
-0.882
  0
LINE
  8
0
 10
115.573
 11
116.118
 20
-117.464
 21
-115.786
  0
LINE
  8
0
 10
116.118
 11
117.882
 20
-115.786
 21
-115.786
  0
LINE
  8
0
 10
117.882
 11
118.427
 20
-115.786
 21
-117.464
  0
LINE
  8
0
 10
118.427
 11
117
 20
-117.464
 21
-118.5
  0
LINE
  8
0
 10
117
 11
115.573
 20
-118.5
 21
-117.464
  0
LINE
  8
0
 10
115.786
 11
115.786
 20
116.118
 21
117.882
  0
LINE
  8
0
 10
115.786
 11
117.464
 20
117.882
 21
118.427
  0
LINE
  8
0
 10
117.464
 11
118.5
 20
118.427
 21
117
  0
LINE
  8
0
 10
118.5
 11
117.464
 20
117
 21
115.573
  0
LINE
  8
0
 10
117.464
 11
115.786
 20
115.573
 21
116.118
  0
ENDSEC
  0
SECTION
  2
OBJECTS
  0
DICTIONARY
  0
ENDSEC
  0
EOF
